<svg fill="none" height="104" viewBox="0 0 243 104" width="243" xmlns="http://www.w3.org/2000/svg"><g fill="#909092"><path d="m71.8581 90.8808c-1.6767 0-2.6348-.9542-2.6348-2.5046 0-1.6698.9581-2.3854 2.515-2.3854 2.1558 0 2.7546.8349 2.7546 2.3854 0 1.789-1.0779 2.5046-2.6348 2.5046z"/><path d="m82.1577 72.633c0 1.6697-.1197 2.1468-.1197 2.6239 0 .5963.1197.7156.3593.7156.479 0 1.1976-2.2661 5.1498-2.2661 4.0719 0 6.587 2.8624 6.587 8.4679 0 5.1284-2.6348 8.7064-6.8265 8.7064-5.0301 0-4.9103-2.9816-5.5092-2.9816-.2395 0-.2395.2385-.479 1.5504-.2395.9542-.8384 1.1927-1.9162 1.1927-1.4372 0-1.7965-.5963-1.7965-1.6697 0-2.5046 0-8.8257 0-19.6789 0-1.1927.5988-1.789 2.3953-1.789 2.036 0 2.2755.7156 2.2755 1.789v3.3394zm7.4254 9.6606c0-3.4587-1.4372-4.6514-3.7127-4.6514s-3.9522 1.1927-3.9522 4.7706c0 3.101 1.5569 5.0092 3.7127 5.0092 2.3952.1193 3.9522-1.789 3.9522-5.1284z"/><path d="m100.601 89.0917c0 1.1927-.479 1.6698-2.2752 1.6698-1.6767 0-2.2755-.4771-2.2755-1.6698 0-8.3486.1197-12.2843.1197-13.3577s.3593-1.4312 1.7965-1.4312c1.3174 0 1.6767.3578 1.7964 1.5504.1198 1.0734.2391 1.1927.4791 1.1927.599 0 1.078-2.7431 4.431-2.7431 1.318 0 1.916.477 1.916 1.9082 0 1.1927-.239 2.2661-1.796 2.2661-2.635 0-4.072 1.5504-4.072 4.7706v5.844"/><path d="m121.44 90.6422c-1.437 0-1.796-.5963-2.036-1.5505-.12-.7156-.12-1.3119-.479-1.3119-.599 0-.718 3.2202-5.269 3.2202-3.713 0-5.51-2.2661-5.51-6.9174 0-5.0092 0-2.7432 0-8.3487 0-1.0734.479-1.5504 2.276-1.5504 1.677 0 2.275.2385 2.275 1.5504 0 .5964-.119 5.7248-.119 7.2753 0 2.7431 1.078 4.1743 2.874 4.1743 2.275 0 3.353-1.789 3.353-5.2477 0-3.9358-.119-5.2477-.119-6.3211 0-.9542.598-1.4312 2.275-1.4312s2.395.2385 2.395 1.4312c0 1.9082-.119 12.1651-.119 13.2385.119 1.1927-.479 1.789-1.797 1.789z"/><path d="m133.057 87.7798c2.276 0 2.874-.8348 2.874-1.5504 0-1.0734-.958-1.312-4.67-1.9083-4.551-.7156-5.509-2.7431-5.509-5.0092 0-3.6972 3.473-5.367 7.066-5.367 4.91 0 6.946 2.1468 6.946 4.4129 0 1.0734-.719 1.6697-2.036 1.6697-.838 0-1.437-.5963-1.677-1.0734-.718-1.1926-1.796-1.6697-3.233-1.6697-1.797 0-2.875.5963-2.875 1.6697 0 1.1927.599 1.789 4.192 2.3853 5.27.9542 6.228 2.3854 6.228 4.6514 0 2.7431-2.396 5.0092-7.665 5.0092-5.27 0-7.066-2.7431-7.066-4.2936 0-1.1926.479-1.6697 1.557-1.6697 1.916 0 1.676 2.7431 5.868 2.7431z"/><path d="m149.465 87.7798c2.275 0 2.874-.8348 2.874-1.5504 0-1.0734-1.078-1.312-4.671-1.9083-4.551-.7156-5.509-2.7431-5.509-5.0092 0-3.6972 3.473-5.367 7.066-5.367 4.911 0 6.947 2.1468 6.947 4.4129 0 1.0734-.719 1.6697-2.036 1.6697-.839 0-1.438-.5963-1.677-1.0734-.719-1.1926-1.797-1.6697-3.234-1.6697-1.796 0-2.874.5963-2.874 1.6697 0 1.1927.599 1.789 4.072 2.3853 5.269.9542 6.228 2.3854 6.228 4.6514 0 2.7431-2.396 5.0092-7.665 5.0092-5.27 0-7.066-2.7431-7.066-4.2936 0-1.1926.479-1.6697 1.557-1.6697 2.036 0 1.796 2.7431 5.988 2.7431z"/><path d="m166.591 91c-5.03 0-8.144-3.4587-8.144-8.8257 0-4.8899 2.994-8.3486 8.264-8.3486 4.91 0 7.784 2.3853 7.784 6.7981 0 1.9083-.598 2.2661-1.796 2.2661-.838 0-8.384 0-9.102 0-.719 0-.719.3578-.719.8349 0 2.1468 1.677 3.8165 4.072 3.8165 3.952 0 3.234-2.6239 5.509-2.6239.839 0 1.557.5964 1.557 1.6697-.119 1.5505-2.036 4.4129-7.425 4.4129zm3.114-10.2569c.599 0 .838-.2385.838-.7156 0-1.1926-1.078-2.7431-3.832-2.7431-2.755 0-3.952 1.6697-3.952 2.8624 0 .477.119.7156.718.7156h6.228z"/><path d="m176.651 69.4129c0-1.0734.599-1.6698 2.276-1.6698 1.556 0 2.155.3578 2.155 1.789 0 1.9083-.119 15.8624-.119 17.4129 0 .5963.119.8348.479.8348.239 0 .359-.1192.718-.1192.839 0 1.198.477 1.198 1.4312 0 1.3119-.958 2.0275-2.875 2.0275-2.634 0-3.952-1.6697-3.952-4.0551v-17.6513"/><path d="m191.621 87.7798c2.276 0 2.875-.8348 2.875-1.5504 0-1.0734-.958-1.312-4.671-1.9083-4.551-.7156-5.509-2.7431-5.509-5.0092 0-3.6972 3.473-5.367 7.066-5.367 4.91 0 6.946 2.1468 6.946 4.4129 0 1.0734-.718 1.6697-2.036 1.6697-.838 0-1.437-.5963-1.676-1.0734-.719-1.1926-1.797-1.6697-3.234-1.6697-1.796 0-2.874.5963-2.874 1.6697 0 1.1927.598 1.789 4.072 2.3853 5.269.9542 6.227 2.3854 6.227 4.6514 0 2.7431-2.395 5.0092-7.665 5.0092-5.269 0-7.066-2.7431-7.066-4.2936 0-1.1926.479-1.6697 1.557-1.6697 2.036 0 1.797 2.7431 5.988 2.7431z"/><path d="m209.586 78.5963c-2.994 0-5.868 2.2661-5.868 5.9633 0 3.578 3.353 5.8441 6.227 5.8441 3.234 0 4.791-.9542 7.426-.4771 2.155.4771 3.233 1.4312 3.832 2.0275.24.2385.599.2385.838.1193.24-.1193.36-.4771.24-1.1927-.359-1.6697-1.198-3.4587-2.276-5.0092-1.916-2.9816-5.988-7.2752-10.419-7.2752z"/><path d="m237.132 78.5963c2.994 0 5.868 2.2661 5.868 5.9633 0 3.578-3.353 5.8441-6.228 5.8441-3.233 0-4.79-.9542-7.425-.4771-2.156.4771-3.234 1.4312-3.832 2.0275-.24.2385-.599.2385-.839.1193-.239-.1193-.359-.4771-.239-1.1927.359-1.6697 1.197-3.4587 2.275-5.0092 1.797-2.9816 5.869-7.2752 10.42-7.2752z"/><path d="m227.191 68.4587c-1.676 0-2.994.7156-3.832 1.6698-.719-.9542-2.156-1.6698-3.833-1.6698-2.994 0-5.748 2.3854-5.748 5.8441 0 1.5504.599 2.6238 1.197 3.4587.599.9541 1.438 1.6697 2.755 2.8624 1.916 1.6697 3.473 3.2202 4.91 6.3211.12.2385.36.4771.719.4771s.599-.2386.718-.4771c1.438-3.1009 2.994-4.7707 4.911-6.3211 1.317-1.0734 2.155-1.9083 2.754-2.8624.599-.8349 1.198-1.9083 1.198-3.4587 0-3.4587-2.755-5.8441-5.749-5.8441z"/></g><path d="m226.952 70.1284c-2.036 0-3.234 1.5505-3.713 2.5046-.479-1.0734-1.677-2.5046-3.713-2.5046-2.275 0-4.191 1.9083-4.191 4.1744 0 .8348.239 1.6697.838 2.3853 2.036 2.8624 4.91 3.6972 6.946 8.2293 2.036-4.4128 4.911-5.3669 6.947-8.2293.479-.7156.838-1.5505.838-2.3853.239-2.2661-1.557-4.1744-3.952-4.1744z" fill="#fff"/><path d="m19.8807 0-19.8807 91.8349.718581.1192 56.169019 12.0459 19.8808-91.7156-.7186-.2385z" fill="#fff"/><path d="m20.3598 11.211c0-.7156 0-1.1927-.4791-1.55046-.2395-.23853-.479-.3578-.7186-.47706l-.8383 3.81652h2.036zm46.8275 2.0275c.479-.3578.479-.9541.479-1.3119 0-.1193 0-.2385 0-.3578l-3.8324-.8349v2.9817h1.7965c.7185-.1193 1.0778-.1193 1.5569-.4771zm-43.1149-4.41282c-.8383 0-1.6766.47706-1.7964 1.19262-.1198.2386-.1198.5964-.1198 1.1927v1.789h4.072v-1.9083c0-1.55042-.9581-2.26602-2.1558-2.26602zm41.558 6.55962h-1.7965v4.0551h1.9162c1.5569 0 2.2755-.9542 2.2755-2.0276 0-.9541-.479-1.6697-1.1976-1.789-.2395-.2385-.4791-.2385-1.1976-.2385zm-40.5999 6.6789c0-.1193-.7185-.2385-2.6347-.8349l-5.3894-1.7889-1.1976 5.2477 6.587-2.1468c1.6766-.3578 2.6347-.4771 2.6347-.4771zm44.7916-10.0183c-.1198 1.1926-.9581 2.0275-2.1558 2.3853 2.036.477 2.6348 1.9082 2.6348 3.2202 0 2.5046-1.7964 3.5779-5.03 3.5779h-3.7127v-10.9724l-2.8743-.59636v11.56876h-2.1558v-12.04582l-1.4371-.3578-.2396 1.43122h-3.2336v10.8532h-2.0359v-10.8532h-3.2337v-1.78902h7.3056l-32.8152-7.0367-1.1976 5.84404c.7186.3578 1.1976.95413 1.4372 1.90826.479-2.14679 1.9162-2.74312 3.2336-2.74312 2.515 0 3.5929 1.78899 3.5929 5.00914v3.6973h-10.0602l-.479 2.3853 10.5392 3.578v1.9082l-12.695 4.2936-13.77275 63.5688h57.00735l16.8867-77.7614zm-41.7975 23.9724-7.9044.5964c-.7185.1192-1.6766.1192-2.1557.1192.4791.1193 1.1976.2386 1.9162.4771l8.1439 2.3853v1.789l-7.6648 2.1468c-.8384.2385-1.9162.4771-2.3953.5963.3593 0 1.5569.1193 2.3953.1193l7.6648.4771v2.1467l-12.8147-1.1926v-2.8624l7.1859-1.9083c1.0778-.2385 1.7964-.3578 2.1557-.477-.3593-.1193-1.1976-.2386-2.1557-.4771l-7.1859-1.9082v-2.8624l12.8147-1.0734zm-12.8147-7.1559h12.8147v2.1468h-12.8147zm25.5097-7.5138c-1.4372 0-2.8744-.3578-4.1918-1.0734l.8384-1.6697c1.1976.7156 2.1557 1.0734 3.4731 1.0734 1.5569 0 2.5151-.7156 2.5151-2.0275 0-.9542-.5989-1.5505-1.9163-1.9083l-1.4371-.3578c-1.1977-.2385-1.9162-.8349-2.3953-1.5504-.3593-.4771-.5988-1.0734-.5988-1.9083 0-2.26606 1.7964-3.81652 4.3115-3.81652 1.4371 0 2.8743.47707 4.0719 1.19266l-.9581 1.43116c-1.1976-.7156-2.036-.95409-2.9941-.95409-1.1976 0-2.0359.71559-2.0359 1.66969 0 .8349.479 1.1927 1.6766 1.5505l1.557.4771c1.9162.477 3.1138 1.6697 3.1138 3.5779 0 2.3854-1.7964 4.2936-5.03 4.2936z" fill="#0077c0"/><path d="m1.43715 90.8807 54.49235 11.6883 2.515-11.6883z" fill="#ef4044"/></svg>